<mxfile host="app.diagrams.net" modified="2021-10-28T11:35:48.377Z" agent="5.0 (Windows)" etag="2-HJz0ayBas5Av4LOpbF" version="15.6.1" type="github">
  <diagram id="-GLtQXDj14qZyoklnuuD" name="Страница 1">
    <mxGraphModel dx="1865" dy="515" grid="1" gridSize="10" guides="1" tooltips="1" connect="1" arrows="1" fold="1" page="1" pageScale="1" pageWidth="827" pageHeight="1169" math="0" shadow="0">
      <root>
        <mxCell id="0" />
        <mxCell id="1" parent="0" />
        <mxCell id="Is6HC1derOJ89-8D8m5b-3" style="edgeStyle=orthogonalEdgeStyle;rounded=0;orthogonalLoop=1;jettySize=auto;html=1;entryX=0;entryY=0.5;entryDx=0;entryDy=0;endArrow=none;endFill=0;strokeColor=#CCCCCC;" parent="1" source="Is6HC1derOJ89-8D8m5b-1" target="Is6HC1derOJ89-8D8m5b-11" edge="1">
          <mxGeometry relative="1" as="geometry">
            <mxPoint x="240" y="280" as="targetPoint" />
            <mxPoint x="130" y="280" as="sourcePoint" />
          </mxGeometry>
        </mxCell>
        <mxCell id="Is6HC1derOJ89-8D8m5b-1" value="Гость" style="shape=umlActor;verticalLabelPosition=bottom;verticalAlign=top;html=1;outlineConnect=0;strokeColor=#CCCCCC;" parent="1" vertex="1">
          <mxGeometry x="70" y="250" width="30" height="60" as="geometry" />
        </mxCell>
        <mxCell id="Is6HC1derOJ89-8D8m5b-4" value="Заходит на сайт от лица библиотекоря" style="rounded=0;whiteSpace=wrap;html=1;" parent="1" vertex="1">
          <mxGeometry x="230" y="640" width="100" height="40" as="geometry" />
        </mxCell>
        <mxCell id="Is6HC1derOJ89-8D8m5b-5" value="Администратор" style="shape=umlActor;verticalLabelPosition=bottom;verticalAlign=top;html=1;outlineConnect=0;strokeColor=#CCCCCC;" parent="1" vertex="1">
          <mxGeometry x="70" y="430" width="30" height="60" as="geometry" />
        </mxCell>
        <mxCell id="Is6HC1derOJ89-8D8m5b-6" value="Библиотекарь" style="shape=umlActor;verticalLabelPosition=bottom;verticalAlign=top;html=1;outlineConnect=0;strokeColor=#CCCCCC;" parent="1" vertex="1">
          <mxGeometry x="70" y="630" width="30" height="60" as="geometry" />
        </mxCell>
        <mxCell id="Is6HC1derOJ89-8D8m5b-9" style="edgeStyle=orthogonalEdgeStyle;rounded=0;orthogonalLoop=1;jettySize=auto;html=1;entryX=0;entryY=0.5;entryDx=0;entryDy=0;endArrow=none;endFill=0;strokeColor=#CCCCCC;" parent="1" source="Is6HC1derOJ89-8D8m5b-6" target="Is6HC1derOJ89-8D8m5b-4" edge="1">
          <mxGeometry relative="1" as="geometry">
            <mxPoint x="310" y="660" as="targetPoint" />
            <mxPoint x="110" y="660" as="sourcePoint" />
          </mxGeometry>
        </mxCell>
        <mxCell id="Is6HC1derOJ89-8D8m5b-10" style="edgeStyle=orthogonalEdgeStyle;rounded=0;orthogonalLoop=1;jettySize=auto;html=1;entryX=0;entryY=0.5;entryDx=0;entryDy=0;endArrow=none;endFill=0;strokeColor=#CCCCCC;" parent="1" source="Is6HC1derOJ89-8D8m5b-5" target="Is6HC1derOJ89-8D8m5b-12" edge="1">
          <mxGeometry relative="1" as="geometry">
            <mxPoint x="230" y="460" as="targetPoint" />
            <mxPoint x="130" y="460" as="sourcePoint" />
          </mxGeometry>
        </mxCell>
        <mxCell id="Is6HC1derOJ89-8D8m5b-16" value="" style="edgeStyle=orthogonalEdgeStyle;rounded=0;orthogonalLoop=1;jettySize=auto;html=1;exitX=1;exitY=0.5;exitDx=0;exitDy=0;entryX=0;entryY=0.5;entryDx=0;entryDy=0;" parent="1" source="Is6HC1derOJ89-8D8m5b-37" target="Is6HC1derOJ89-8D8m5b-14" edge="1">
          <mxGeometry relative="1" as="geometry">
            <Array as="points">
              <mxPoint x="380" y="180" />
              <mxPoint x="380" y="280" />
            </Array>
          </mxGeometry>
        </mxCell>
        <mxCell id="Is6HC1derOJ89-8D8m5b-11" value="Заходит на сайт от лица гостя" style="rounded=0;whiteSpace=wrap;html=1;" parent="1" vertex="1">
          <mxGeometry x="230" y="260" width="100" height="40" as="geometry" />
        </mxCell>
        <mxCell id="Is6HC1derOJ89-8D8m5b-12" value="Заходит на сайт от лица администратора" style="rounded=0;whiteSpace=wrap;html=1;" parent="1" vertex="1">
          <mxGeometry x="220" y="440" width="100" height="40" as="geometry" />
        </mxCell>
        <mxCell id="Is6HC1derOJ89-8D8m5b-15" value="" style="edgeStyle=orthogonalEdgeStyle;rounded=0;orthogonalLoop=1;jettySize=auto;html=1;exitX=0;exitY=0.5;exitDx=0;exitDy=0;entryX=0;entryY=0.5;entryDx=0;entryDy=0;" parent="1" source="Is6HC1derOJ89-8D8m5b-14" target="Is6HC1derOJ89-8D8m5b-14" edge="1">
          <mxGeometry relative="1" as="geometry" />
        </mxCell>
        <mxCell id="Is6HC1derOJ89-8D8m5b-94" value="" style="edgeStyle=orthogonalEdgeStyle;rounded=0;orthogonalLoop=1;jettySize=auto;html=1;" parent="1" source="Is6HC1derOJ89-8D8m5b-14" target="Is6HC1derOJ89-8D8m5b-82" edge="1">
          <mxGeometry relative="1" as="geometry" />
        </mxCell>
        <mxCell id="qZF1I02aohTkv7pD3h1L-2" style="edgeStyle=orthogonalEdgeStyle;rounded=0;orthogonalLoop=1;jettySize=auto;html=1;endArrow=classic;endFill=1;strokeColor=#000000;" edge="1" parent="1" source="Is6HC1derOJ89-8D8m5b-14" target="Is6HC1derOJ89-8D8m5b-19">
          <mxGeometry relative="1" as="geometry" />
        </mxCell>
        <mxCell id="Is6HC1derOJ89-8D8m5b-14" value="Выбирает книгу" style="rounded=0;whiteSpace=wrap;html=1;" parent="1" vertex="1">
          <mxGeometry x="414" y="260" width="100" height="40" as="geometry" />
        </mxCell>
        <mxCell id="Is6HC1derOJ89-8D8m5b-19" value="" style="strokeWidth=1;html=1;shape=mxgraph.flowchart.decision;whiteSpace=wrap;" parent="1" vertex="1">
          <mxGeometry x="610" y="250" width="74" height="60" as="geometry" />
        </mxCell>
        <mxCell id="Is6HC1derOJ89-8D8m5b-29" value="" style="edgeStyle=orthogonalEdgeStyle;rounded=1;orthogonalLoop=1;jettySize=auto;html=1;entryX=0;entryY=0.5;entryDx=0;entryDy=0;" parent="1" source="Is6HC1derOJ89-8D8m5b-19" target="Is6HC1derOJ89-8D8m5b-67" edge="1">
          <mxGeometry relative="1" as="geometry">
            <mxPoint x="647.0588235294122" y="340" as="sourcePoint" />
            <mxPoint x="800" y="300" as="targetPoint" />
            <Array as="points">
              <mxPoint x="750" y="280" />
              <mxPoint x="750" y="300" />
            </Array>
          </mxGeometry>
        </mxCell>
        <mxCell id="Is6HC1derOJ89-8D8m5b-30" value="" style="edgeStyle=orthogonalEdgeStyle;rounded=1;orthogonalLoop=1;jettySize=auto;html=1;entryX=0;entryY=0.5;entryDx=0;entryDy=0;" parent="1" source="Is6HC1derOJ89-8D8m5b-19" target="Is6HC1derOJ89-8D8m5b-66" edge="1">
          <mxGeometry relative="1" as="geometry">
            <mxPoint x="657" y="350" as="sourcePoint" />
            <mxPoint x="800" y="240" as="targetPoint" />
            <Array as="points">
              <mxPoint x="750" y="280" />
              <mxPoint x="750" y="240" />
            </Array>
          </mxGeometry>
        </mxCell>
        <mxCell id="Is6HC1derOJ89-8D8m5b-31" value="" style="edgeStyle=orthogonalEdgeStyle;rounded=0;orthogonalLoop=1;jettySize=auto;html=1;exitX=0.5;exitY=0;exitDx=0;exitDy=0;exitPerimeter=0;entryX=0;entryY=0.5;entryDx=0;entryDy=0;" parent="1" source="Is6HC1derOJ89-8D8m5b-19" target="Is6HC1derOJ89-8D8m5b-65" edge="1">
          <mxGeometry relative="1" as="geometry">
            <mxPoint x="640" y="140" as="sourcePoint" />
            <mxPoint x="800" y="100" as="targetPoint" />
            <Array as="points">
              <mxPoint x="647" y="100" />
            </Array>
          </mxGeometry>
        </mxCell>
        <mxCell id="Is6HC1derOJ89-8D8m5b-32" value="" style="edgeStyle=orthogonalEdgeStyle;rounded=0;orthogonalLoop=1;jettySize=auto;html=1;entryX=0;entryY=0.5;entryDx=0;entryDy=0;" parent="1" source="Is6HC1derOJ89-8D8m5b-19" target="Is6HC1derOJ89-8D8m5b-68" edge="1">
          <mxGeometry relative="1" as="geometry">
            <mxPoint x="646.9999999999995" y="400" as="sourcePoint" />
            <mxPoint x="710" y="450" as="targetPoint" />
            <Array as="points">
              <mxPoint x="647" y="450" />
            </Array>
          </mxGeometry>
        </mxCell>
        <mxCell id="Is6HC1derOJ89-8D8m5b-37" value="Регистрация" style="rounded=0;whiteSpace=wrap;html=1;" parent="1" vertex="1">
          <mxGeometry x="230" y="160" width="100" height="40" as="geometry" />
        </mxCell>
        <mxCell id="Is6HC1derOJ89-8D8m5b-38" value="" style="edgeStyle=orthogonalEdgeStyle;rounded=0;orthogonalLoop=1;jettySize=auto;html=1;exitX=0.5;exitY=0;exitDx=0;exitDy=0;entryX=0.5;entryY=1;entryDx=0;entryDy=0;" parent="1" source="Is6HC1derOJ89-8D8m5b-11" target="Is6HC1derOJ89-8D8m5b-37" edge="1">
          <mxGeometry relative="1" as="geometry">
            <mxPoint x="340" y="290" as="sourcePoint" />
            <mxPoint x="424" y="290" as="targetPoint" />
          </mxGeometry>
        </mxCell>
        <mxCell id="Is6HC1derOJ89-8D8m5b-39" value="" style="edgeStyle=orthogonalEdgeStyle;rounded=0;orthogonalLoop=1;jettySize=auto;html=1;exitX=0;exitY=0.5;exitDx=0;exitDy=0;entryX=0.5;entryY=0;entryDx=0;entryDy=0;" parent="1" source="Is6HC1derOJ89-8D8m5b-37" target="Is6HC1derOJ89-8D8m5b-42" edge="1">
          <mxGeometry relative="1" as="geometry">
            <mxPoint x="180" y="180" as="sourcePoint" />
            <mxPoint x="-160" y="240" as="targetPoint" />
            <Array as="points">
              <mxPoint x="-160" y="180" />
            </Array>
          </mxGeometry>
        </mxCell>
        <mxCell id="Is6HC1derOJ89-8D8m5b-42" value="Указывает" style="rounded=0;whiteSpace=wrap;html=1;" parent="1" vertex="1">
          <mxGeometry x="-210" y="260" width="100" height="40" as="geometry" />
        </mxCell>
        <mxCell id="Is6HC1derOJ89-8D8m5b-46" value="Узнает у гостя" style="rounded=0;whiteSpace=wrap;html=1;" parent="1" vertex="1">
          <mxGeometry x="-80" y="440" width="100" height="40" as="geometry" />
        </mxCell>
        <mxCell id="Is6HC1derOJ89-8D8m5b-48" style="edgeStyle=orthogonalEdgeStyle;rounded=0;orthogonalLoop=1;jettySize=auto;html=1;entryX=1;entryY=0.5;entryDx=0;entryDy=0;endArrow=none;endFill=0;strokeColor=#CCCCCC;" parent="1" source="Is6HC1derOJ89-8D8m5b-5" target="Is6HC1derOJ89-8D8m5b-46" edge="1">
          <mxGeometry relative="1" as="geometry">
            <mxPoint x="240" y="670" as="targetPoint" />
            <mxPoint x="50" y="660" as="sourcePoint" />
          </mxGeometry>
        </mxCell>
        <mxCell id="Is6HC1derOJ89-8D8m5b-50" style="edgeStyle=orthogonalEdgeStyle;rounded=0;orthogonalLoop=1;jettySize=auto;html=1;exitX=0.5;exitY=1;exitDx=0;exitDy=0;entryX=0.5;entryY=0;entryDx=0;entryDy=0;" parent="1" source="Is6HC1derOJ89-8D8m5b-42" edge="1">
          <mxGeometry relative="1" as="geometry">
            <mxPoint x="-160" y="440" as="targetPoint" />
            <mxPoint x="-150" y="650" as="sourcePoint" />
          </mxGeometry>
        </mxCell>
        <mxCell id="Is6HC1derOJ89-8D8m5b-51" value="" style="rhombus;whiteSpace=wrap;html=1;" parent="1" vertex="1">
          <mxGeometry x="-350" y="435" width="80" height="50" as="geometry" />
        </mxCell>
        <mxCell id="Is6HC1derOJ89-8D8m5b-52" style="edgeStyle=orthogonalEdgeStyle;rounded=0;orthogonalLoop=1;jettySize=auto;html=1;entryX=1;entryY=0.5;entryDx=0;entryDy=0;exitX=0;exitY=0.5;exitDx=0;exitDy=0;" parent="1" target="Is6HC1derOJ89-8D8m5b-51" edge="1">
          <mxGeometry relative="1" as="geometry">
            <mxPoint x="240" y="470" as="targetPoint" />
            <mxPoint x="-210" y="460" as="sourcePoint" />
          </mxGeometry>
        </mxCell>
        <mxCell id="Is6HC1derOJ89-8D8m5b-53" style="edgeStyle=orthogonalEdgeStyle;rounded=0;orthogonalLoop=1;jettySize=auto;html=1;exitX=0.5;exitY=0;exitDx=0;exitDy=0;" parent="1" source="Is6HC1derOJ89-8D8m5b-51" target="Is6HC1derOJ89-8D8m5b-55" edge="1">
          <mxGeometry relative="1" as="geometry">
            <mxPoint x="-410" y="390" as="targetPoint" />
            <mxPoint x="120" y="480" as="sourcePoint" />
            <Array as="points">
              <mxPoint x="-310" y="390" />
            </Array>
          </mxGeometry>
        </mxCell>
        <mxCell id="Is6HC1derOJ89-8D8m5b-54" style="edgeStyle=orthogonalEdgeStyle;rounded=0;orthogonalLoop=1;jettySize=auto;html=1;exitX=0.5;exitY=1;exitDx=0;exitDy=0;entryX=1;entryY=0.5;entryDx=0;entryDy=0;" parent="1" source="Is6HC1derOJ89-8D8m5b-51" target="Is6HC1derOJ89-8D8m5b-56" edge="1">
          <mxGeometry relative="1" as="geometry">
            <mxPoint x="-420" y="540" as="targetPoint" />
            <mxPoint x="-310" y="585" as="sourcePoint" />
            <Array as="points">
              <mxPoint x="-310" y="540" />
            </Array>
          </mxGeometry>
        </mxCell>
        <mxCell id="Is6HC1derOJ89-8D8m5b-55" value="ФИО" style="rounded=0;whiteSpace=wrap;html=1;" parent="1" vertex="1">
          <mxGeometry x="-513" y="370" width="100" height="40" as="geometry" />
        </mxCell>
        <mxCell id="Is6HC1derOJ89-8D8m5b-56" value="Дата рождения" style="rounded=0;whiteSpace=wrap;html=1;" parent="1" vertex="1">
          <mxGeometry x="-513" y="520" width="100" height="40" as="geometry" />
        </mxCell>
        <mxCell id="Is6HC1derOJ89-8D8m5b-57" style="edgeStyle=orthogonalEdgeStyle;rounded=0;orthogonalLoop=1;jettySize=auto;html=1;exitX=0;exitY=0.5;exitDx=0;exitDy=0;entryX=1;entryY=0.5;entryDx=0;entryDy=0;" parent="1" source="Is6HC1derOJ89-8D8m5b-46" edge="1">
          <mxGeometry relative="1" as="geometry">
            <mxPoint x="-110" y="460" as="targetPoint" />
            <mxPoint x="-150" y="310" as="sourcePoint" />
          </mxGeometry>
        </mxCell>
        <mxCell id="Is6HC1derOJ89-8D8m5b-58" value="Принимают новые книги" style="rounded=0;whiteSpace=wrap;html=1;" parent="1" vertex="1">
          <mxGeometry x="370" y="540" width="100" height="40" as="geometry" />
        </mxCell>
        <mxCell id="Is6HC1derOJ89-8D8m5b-63" style="edgeStyle=orthogonalEdgeStyle;rounded=0;orthogonalLoop=1;jettySize=auto;html=1;exitX=1;exitY=0.5;exitDx=0;exitDy=0;entryX=0.5;entryY=0;entryDx=0;entryDy=0;" parent="1" source="Is6HC1derOJ89-8D8m5b-12" target="Is6HC1derOJ89-8D8m5b-58" edge="1">
          <mxGeometry relative="1" as="geometry">
            <mxPoint x="490" y="600" as="targetPoint" />
            <mxPoint x="490" y="460" as="sourcePoint" />
          </mxGeometry>
        </mxCell>
        <mxCell id="Is6HC1derOJ89-8D8m5b-64" style="edgeStyle=orthogonalEdgeStyle;rounded=0;orthogonalLoop=1;jettySize=auto;html=1;exitX=1;exitY=0.5;exitDx=0;exitDy=0;entryX=0.5;entryY=1;entryDx=0;entryDy=0;" parent="1" source="Is6HC1derOJ89-8D8m5b-4" target="Is6HC1derOJ89-8D8m5b-58" edge="1">
          <mxGeometry relative="1" as="geometry">
            <mxPoint x="440" y="620" as="targetPoint" />
            <mxPoint x="440" y="710" as="sourcePoint" />
            <Array as="points">
              <mxPoint x="420" y="660" />
            </Array>
          </mxGeometry>
        </mxCell>
        <mxCell id="Is6HC1derOJ89-8D8m5b-65" value="Автор" style="rounded=0;whiteSpace=wrap;html=1;" parent="1" vertex="1">
          <mxGeometry x="810" y="80" width="100" height="40" as="geometry" />
        </mxCell>
        <mxCell id="Is6HC1derOJ89-8D8m5b-66" value="Жанр" style="rounded=0;whiteSpace=wrap;html=1;" parent="1" vertex="1">
          <mxGeometry x="810" y="220" width="100" height="40" as="geometry" />
        </mxCell>
        <mxCell id="Is6HC1derOJ89-8D8m5b-67" value="Аудио" style="rounded=0;whiteSpace=wrap;html=1;" parent="1" vertex="1">
          <mxGeometry x="810" y="280" width="100" height="40" as="geometry" />
        </mxCell>
        <mxCell id="Is6HC1derOJ89-8D8m5b-68" value="Год" style="rounded=0;whiteSpace=wrap;html=1;" parent="1" vertex="1">
          <mxGeometry x="810" y="430" width="100" height="40" as="geometry" />
        </mxCell>
        <mxCell id="Is6HC1derOJ89-8D8m5b-74" style="edgeStyle=orthogonalEdgeStyle;rounded=0;orthogonalLoop=1;jettySize=auto;html=1;exitX=1;exitY=0.5;exitDx=0;exitDy=0;entryX=0;entryY=0.5;entryDx=0;entryDy=0;" parent="1" source="Is6HC1derOJ89-8D8m5b-4" target="Is6HC1derOJ89-8D8m5b-75" edge="1">
          <mxGeometry relative="1" as="geometry">
            <mxPoint x="780" y="660" as="targetPoint" />
            <mxPoint x="340" y="670" as="sourcePoint" />
            <Array as="points" />
          </mxGeometry>
        </mxCell>
        <mxCell id="Is6HC1derOJ89-8D8m5b-75" value="Группирует книги" style="rounded=0;whiteSpace=wrap;html=1;" parent="1" vertex="1">
          <mxGeometry x="810" y="640" width="100" height="40" as="geometry" />
        </mxCell>
        <mxCell id="Is6HC1derOJ89-8D8m5b-76" value="" style="edgeStyle=orthogonalEdgeStyle;rounded=0;orthogonalLoop=1;jettySize=auto;html=1;exitX=1;exitY=0.5;exitDx=0;exitDy=0;entryX=1;entryY=0.5;entryDx=0;entryDy=0;" parent="1" source="Is6HC1derOJ89-8D8m5b-75" target="Is6HC1derOJ89-8D8m5b-68" edge="1">
          <mxGeometry relative="1" as="geometry">
            <mxPoint x="1060" y="570" as="sourcePoint" />
            <mxPoint x="970" y="450" as="targetPoint" />
            <Array as="points">
              <mxPoint x="970" y="660" />
              <mxPoint x="970" y="450" />
            </Array>
          </mxGeometry>
        </mxCell>
        <mxCell id="Is6HC1derOJ89-8D8m5b-77" value="" style="edgeStyle=orthogonalEdgeStyle;rounded=0;orthogonalLoop=1;jettySize=auto;html=1;exitX=1;exitY=0.5;exitDx=0;exitDy=0;entryX=1;entryY=0.5;entryDx=0;entryDy=0;" parent="1" source="Is6HC1derOJ89-8D8m5b-75" target="Is6HC1derOJ89-8D8m5b-67" edge="1">
          <mxGeometry relative="1" as="geometry">
            <mxPoint x="920" y="670" as="sourcePoint" />
            <mxPoint x="920" y="300" as="targetPoint" />
            <Array as="points">
              <mxPoint x="970" y="660" />
              <mxPoint x="970" y="300" />
            </Array>
          </mxGeometry>
        </mxCell>
        <mxCell id="Is6HC1derOJ89-8D8m5b-78" value="" style="edgeStyle=orthogonalEdgeStyle;rounded=0;orthogonalLoop=1;jettySize=auto;html=1;exitX=1;exitY=0.5;exitDx=0;exitDy=0;entryX=1;entryY=0.5;entryDx=0;entryDy=0;" parent="1" source="Is6HC1derOJ89-8D8m5b-75" target="Is6HC1derOJ89-8D8m5b-66" edge="1">
          <mxGeometry relative="1" as="geometry">
            <mxPoint x="920" y="670" as="sourcePoint" />
            <mxPoint x="920" y="240" as="targetPoint" />
            <Array as="points">
              <mxPoint x="970" y="660" />
              <mxPoint x="970" y="240" />
            </Array>
          </mxGeometry>
        </mxCell>
        <mxCell id="Is6HC1derOJ89-8D8m5b-80" value="" style="edgeStyle=orthogonalEdgeStyle;rounded=0;orthogonalLoop=1;jettySize=auto;html=1;exitX=1;exitY=0.5;exitDx=0;exitDy=0;entryX=1;entryY=0.5;entryDx=0;entryDy=0;" parent="1" source="Is6HC1derOJ89-8D8m5b-75" target="Is6HC1derOJ89-8D8m5b-65" edge="1">
          <mxGeometry relative="1" as="geometry">
            <mxPoint x="970" y="660" as="sourcePoint" />
            <mxPoint x="980" y="100" as="targetPoint" />
            <Array as="points">
              <mxPoint x="970" y="660" />
              <mxPoint x="970" y="100" />
            </Array>
          </mxGeometry>
        </mxCell>
        <mxCell id="Is6HC1derOJ89-8D8m5b-81" value="Книга" style="rounded=0;whiteSpace=wrap;html=1;" parent="1" vertex="1">
          <mxGeometry x="500" y="445" width="100" height="40" as="geometry" />
        </mxCell>
        <mxCell id="Is6HC1derOJ89-8D8m5b-90" value="" style="edgeStyle=orthogonalEdgeStyle;rounded=0;orthogonalLoop=1;jettySize=auto;html=1;" parent="1" source="Is6HC1derOJ89-8D8m5b-82" target="Is6HC1derOJ89-8D8m5b-81" edge="1">
          <mxGeometry relative="1" as="geometry" />
        </mxCell>
        <mxCell id="Is6HC1derOJ89-8D8m5b-95" value="" style="edgeStyle=orthogonalEdgeStyle;rounded=0;orthogonalLoop=1;jettySize=auto;html=1;" parent="1" source="Is6HC1derOJ89-8D8m5b-82" target="Is6HC1derOJ89-8D8m5b-92" edge="1">
          <mxGeometry relative="1" as="geometry" />
        </mxCell>
        <mxCell id="Is6HC1derOJ89-8D8m5b-82" value="Покупает" style="rounded=0;whiteSpace=wrap;html=1;" parent="1" vertex="1">
          <mxGeometry x="414" y="340" width="100" height="40" as="geometry" />
        </mxCell>
        <mxCell id="Is6HC1derOJ89-8D8m5b-87" value="" style="edgeStyle=orthogonalEdgeStyle;rounded=0;orthogonalLoop=1;jettySize=auto;html=1;exitX=0.5;exitY=0;exitDx=0;exitDy=0;" parent="1" source="Is6HC1derOJ89-8D8m5b-83" target="Is6HC1derOJ89-8D8m5b-81" edge="1">
          <mxGeometry relative="1" as="geometry" />
        </mxCell>
        <mxCell id="Is6HC1derOJ89-8D8m5b-83" value="Продает" style="rounded=0;whiteSpace=wrap;html=1;" parent="1" vertex="1">
          <mxGeometry x="500" y="540" width="100" height="40" as="geometry" />
        </mxCell>
        <mxCell id="Is6HC1derOJ89-8D8m5b-84" style="edgeStyle=orthogonalEdgeStyle;rounded=0;orthogonalLoop=1;jettySize=auto;html=1;exitX=1;exitY=0.5;exitDx=0;exitDy=0;entryX=0.5;entryY=1;entryDx=0;entryDy=0;" parent="1" source="Is6HC1derOJ89-8D8m5b-4" target="Is6HC1derOJ89-8D8m5b-83" edge="1">
          <mxGeometry relative="1" as="geometry">
            <mxPoint x="550" y="600" as="targetPoint" />
            <mxPoint x="460" y="690" as="sourcePoint" />
            <Array as="points">
              <mxPoint x="550" y="660" />
            </Array>
          </mxGeometry>
        </mxCell>
        <mxCell id="Is6HC1derOJ89-8D8m5b-86" style="edgeStyle=orthogonalEdgeStyle;rounded=0;orthogonalLoop=1;jettySize=auto;html=1;entryX=0.5;entryY=1;entryDx=0;entryDy=0;" parent="1" target="Is6HC1derOJ89-8D8m5b-81" edge="1">
          <mxGeometry relative="1" as="geometry">
            <mxPoint x="549.5" y="490" as="targetPoint" />
            <mxPoint x="550" y="515" as="sourcePoint" />
            <Array as="points" />
          </mxGeometry>
        </mxCell>
        <mxCell id="Is6HC1derOJ89-8D8m5b-92" value="Выбирает книгу" style="rounded=0;whiteSpace=wrap;html=1;" parent="1" vertex="1">
          <mxGeometry x="230" y="340" width="100" height="40" as="geometry" />
        </mxCell>
        <mxCell id="qZF1I02aohTkv7pD3h1L-1" value="Сведения" style="html=1;dashed=0;whitespace=wrap;shape=partialRectangle;right=0;strokeColor=#000000;" vertex="1" parent="1">
          <mxGeometry x="-210" y="440" width="100" height="30" as="geometry" />
        </mxCell>
      </root>
    </mxGraphModel>
  </diagram>
</mxfile>
